<mxfile host="app.diagrams.net" modified="2023-12-13T04:29:02.978Z" agent="Mozilla/5.0 (Windows NT 10.0; Win64; x64) AppleWebKit/537.36 (KHTML, like Gecko) Chrome/120.0.0.0 Safari/537.36 Edg/120.0.0.0" etag="7QpUQY48Tjhh6VsrvXfw" version="22.1.8" type="github">
  <diagram name="第 1 页" id="9w3JwIJIE6RUxMEWY0B7">
    <mxGraphModel dx="485" dy="309" grid="1" gridSize="10" guides="1" tooltips="1" connect="1" arrows="1" fold="1" page="1" pageScale="1" pageWidth="827" pageHeight="1169" math="0" shadow="0">
      <root>
        <mxCell id="0" />
        <mxCell id="1" parent="0" />
        <mxCell id="mMs0mwQMR92kUMiCr6XS-1" value="/bin/sh" style="rounded=0;whiteSpace=wrap;html=1;" vertex="1" parent="1">
          <mxGeometry x="364" y="250" width="120" height="60" as="geometry" />
        </mxCell>
        <mxCell id="mMs0mwQMR92kUMiCr6XS-2" value="pop_ret" style="rounded=0;whiteSpace=wrap;html=1;" vertex="1" parent="1">
          <mxGeometry x="364" y="310" width="120" height="60" as="geometry" />
        </mxCell>
        <mxCell id="mMs0mwQMR92kUMiCr6XS-3" value="system" style="rounded=0;whiteSpace=wrap;html=1;" vertex="1" parent="1">
          <mxGeometry x="364" y="370" width="120" height="60" as="geometry" />
        </mxCell>
      </root>
    </mxGraphModel>
  </diagram>
</mxfile>
